<svg xmlns="http://www.w3.org/2000/svg" xmlns:xlink="http://www.w3.org/1999/xlink" width="27" height="25" viewBox="0 0 27 25"><defs><path id="m53ra" d="M744.56 1689.27c0-.537.434-.977.962-.977H749c.433 0 .818.294.93.717l3.925 14.43h10.704l3.557-8.306h-11.857a.972.972 0 0 1-.962-.978c0-.537.433-.977.962-.977h13.331a.95.95 0 0 1 .801.44c.177.277.209.619.08.928l-4.39 10.26a.963.963 0 0 1-.881.586h-12.066a.964.964 0 0 1-.929-.716l-3.926-14.43h-2.756a.972.972 0 0 1-.961-.977zm5.48 20.781c0-1.221.978-2.214 2.18-2.214 1.202 0 2.18.993 2.18 2.214 0 1.222-.978 2.215-2.18 2.215-1.202 0-2.18-.993-2.18-2.215zm13.637.147c-.08-1.205.817-2.28 2.019-2.361 1.201-.082 2.243.847 2.323 2.052.032.602-.144 1.172-.529 1.612a2.163 2.163 0 0 1-1.49.765h-.16c-1.138 0-2.083-.912-2.163-2.068z"/><clipPath id="m53rb"><use fill="#fff" xlink:href="#m53ra"/></clipPath></defs><g><g transform="translate(-744 -1688)"><use fill="#fff" xlink:href="#m53ra"/><use fill="#fff" fill-opacity="0" stroke="#fff" stroke-linecap="round" stroke-linejoin="round" stroke-miterlimit="50" stroke-width="4" clip-path="url(&quot;#m53rb&quot;)" xlink:href="#m53ra"/></g></g></svg>